<svg width="24" height="24" viewBox="0 0 32 32" fill="none" xmlns="http://www.w3.org/2000/svg">
<path d="M8 2.6665L4 7.99984V26.6665C4 27.3737 4.28095 28.052 4.78105 28.5521C5.28115 29.0522 5.95942 29.3332 6.66667 29.3332H25.3333C26.0406 29.3332 26.7189 29.0522 27.219 28.5521C27.719 28.052 28 27.3737 28 26.6665V7.99984L24 2.6665H8Z" stroke="#374151" stroke-width="2" stroke-linecap="round" stroke-linejoin="round"/>
<path d="M4 8H28" stroke="#374151" stroke-width="2" stroke-linecap="round" stroke-linejoin="round"/>
<path d="M21.3334 13.3335C21.3334 14.748 20.7715 16.1045 19.7713 17.1047C18.7711 18.1049 17.4146 18.6668 16.0001 18.6668C14.5856 18.6668 13.229 18.1049 12.2288 17.1047C11.2287 16.1045 10.6667 14.748 10.6667 13.3335" stroke="#374151" stroke-width="2" stroke-linecap="round" stroke-linejoin="round"/>
</svg>
