<svg width="24" height="24" viewBox="0 0 40 40" fill="none" xmlns="http://www.w3.org/2000/svg">
<path d="M34.7333 7.6832C33.8821 6.83154 32.8713 6.15595 31.7589 5.69501C30.6465 5.23407 29.4541 4.99683 28.25 4.99683C27.0458 4.99683 25.8535 5.23407 24.7411 5.69501C23.6286 6.15595 22.6179 6.83154 21.7667 7.6832L20 9.44987L18.2333 7.6832C16.5138 5.96372 14.1817 4.99772 11.75 4.99772C9.31827 4.99772 6.98615 5.96372 5.26666 7.6832C3.54717 9.40269 2.58118 11.7348 2.58118 14.1665C2.58118 16.5983 3.54717 18.9304 5.26666 20.6499L7.03333 22.4165L20 35.3832L32.9667 22.4165L34.7333 20.6499C35.585 19.7986 36.2606 18.7879 36.7215 17.6755C37.1825 16.563 37.4197 15.3707 37.4197 14.1665C37.4197 12.9624 37.1825 11.77 36.7215 10.6576C36.2606 9.54518 35.585 8.53446 34.7333 7.6832V7.6832Z" stroke="#374151" stroke-width="2.5" stroke-linecap="round" stroke-linejoin="round"/>
</svg>
